<?xml version="1.0" encoding="utf-8"?>
<svg id="svg2" viewBox="0 0 500 670" xmlns="http://www.w3.org/2000/svg">
  <desc>Source: openclipart.org/detail/209545</desc>
  <path d="M 426.021 262.561 C 414.652 272.82 397.892 276.255 382.825 271.426 L 342.221 308.628 C 339.906 310.828 336.071 310.828 333.754 308.628 L 316.477 292.797 C 314.265 290.596 314.265 287.225 316.477 285.041 L 357.254 247.839 C 346.471 220.437 372.113 192.624 403.404 197.769 C 407.758 198.481 411.939 199.827 415.827 201.774 L 388.354 227.735 L 405.633 243.566 L 433.623 217.92 C 442.124 232.705 439.032 250.847 426.021 262.561 Z M 438.115 88.428 L 438.115 179.61 C 425.347 171.744 410.297 167.548 394.921 167.58 C 387.37 167.596 379.871 168.609 372.631 170.588 L 372.631 108.849 L 345.85 108.849 L 345.85 183.411 C 327.656 196.961 317.116 217.318 317.168 238.817 C 316.995 241.444 316.995 244.087 317.168 246.731 L 127.106 246.731 C 108.014 246.731 92.55 232.548 92.55 215.071 L 92.55 88.428 C 92.55 70.937 108.014 56.768 127.106 56.768 L 403.559 56.768 C 422.635 56.768 438.115 70.937 438.115 88.428 Z M 248.055 199.24 L 215.052 108.533 L 178.941 108.533 L 147.322 199.24 L 176.695 199.24 L 181.705 182.302 L 213.497 182.302 L 218.508 199.24 L 248.055 199.24 Z M 330.472 137.661 C 331.042 129.572 327.535 121.704 320.969 116.29 C 312.9 110.828 302.982 108.185 292.978 108.849 L 258.422 108.849 L 258.422 199.24 L 285.03 199.24 L 285.03 169.321 L 292.633 169.321 C 298.524 169.4 304.381 168.498 309.91 166.63 C 314.282 165.126 318.239 162.735 321.488 159.665 C 324.372 156.753 326.498 153.301 327.707 149.533 C 329.211 145.718 330.022 141.713 330.126 137.661 L 330.472 137.661 Z M 204.34 147.476 L 202.267 140.51 L 199.675 131.328 C 199.675 128.005 198.293 125.471 197.775 123.413 C 197.343 125.962 196.772 128.496 196.046 131.013 C 196.046 134.019 194.664 137.027 193.801 140.035 C 192.937 143.043 192.418 145.418 191.727 147.476 L 187.58 162.197 L 208.142 162.197 L 204.34 147.476 Z M 300.926 131.645 C 298.611 129.619 295.448 128.638 292.287 128.955 L 285.376 128.955 L 285.376 149.691 L 290.732 149.691 C 292.926 149.74 295.103 149.359 297.125 148.583 C 299.025 147.871 300.649 146.653 301.79 145.101 C 303.121 143.09 303.777 140.779 303.691 138.452 C 303.691 135.666 302.291 133.039 299.889 131.328 L 300.926 131.645 Z" style="stroke-width: 1; fill: rgb(235, 235, 235);"/>
  <rect width="418.435" height="322.717" fill="none" x="54.548" y="14.262" style="stroke-width: 1;"/>
</svg>